<svg xmlns="http://www.w3.org/2000/svg" viewBox="0 0 192 192" width="192" height="192">
  <rect width="192" height="192" rx="42" fill="#000000"/>
  <rect x="6" y="6" width="180" height="180" rx="38" fill="#000000" stroke="#f5c518" stroke-width="8"/>
  <rect x="36" y="42" width="120" height="108" rx="18" fill="#f5c518"/>
  <rect x="48" y="51" width="15" height="18" rx="4.5" fill="#000000"/>
  <rect x="75" y="51" width="15" height="18" rx="4.5" fill="#000000"/>
  <rect x="102" y="51" width="15" height="18" rx="4.5" fill="#000000"/>
  <rect x="129" y="51" width="15" height="18" rx="4.5" fill="#000000"/>
  <rect x="48" y="123" width="15" height="18" rx="4.5" fill="#000000"/>
  <rect x="75" y="123" width="15" height="18" rx="4.5" fill="#000000"/>
  <rect x="102" y="123" width="15" height="18" rx="4.5" fill="#000000"/>
  <rect x="129" y="123" width="15" height="18" rx="4.5" fill="#000000"/>
  <polygon points="84,78 120,96 84,114" fill="#000000"/>
</svg>
